<svg width="32" height="32" viewBox="0 0 32 32" fill="none" xmlns="http://www.w3.org/2000/svg">
<path d="M4 3.33301H7.33333L10.305 21.7577C10.5135 23.0498 11.6288 23.9997 12.9377 23.9997H24" stroke="#22242A" stroke-width="2" stroke-linecap="round" stroke-linejoin="round"/>
<path d="M12.3333 28.6667C13.622 28.6667 14.6667 27.622 14.6667 26.3333C14.6667 25.0447 13.622 24 12.3333 24C11.0447 24 10 25.0447 10 26.3333C10 27.622 11.0447 28.6667 12.3333 28.6667Z" stroke="#22242A" stroke-width="2" stroke-linecap="round" stroke-linejoin="round"/>
<path d="M24.3333 28.6667C25.622 28.6667 26.6667 27.622 26.6667 26.3333C26.6667 25.0447 25.622 24 24.3333 24C23.0447 24 22 25.0447 22 26.3333C22 27.622 23.0447 28.6667 24.3333 28.6667Z" stroke="#22242A" stroke-width="2" stroke-linecap="round" stroke-linejoin="round"/>
<path d="M10.6667 20.6663L26 17.9997L28 7.33301H8" stroke="#22242A" stroke-width="2" stroke-linecap="round" stroke-linejoin="round"/>
</svg>
