<svg width="36" height="36" viewBox="0 0 36 36" fill="none" xmlns="http://www.w3.org/2000/svg">
<rect width="36" height="36" rx="5" fill="white"/>
<path d="M8 8H10.5L13 22L12 24" stroke="#22242A" stroke-width="1.5" stroke-linecap="round" stroke-linejoin="round"/>
<path d="M12 28C13.1046 28 14 27.1046 14 26C14 24.8954 13.1046 24 12 24C10.8954 24 10 24.8954 10 26C10 27.1046 10.8954 28 12 28Z" stroke="#22242A" stroke-width="1.5" stroke-linecap="round" stroke-linejoin="round"/>
<path d="M22 28C23.1046 28 24 27.1046 24 26C24 24.8954 23.1046 24 22 24C20.8954 24 20 24.8954 20 26C20 27.1046 20.8954 28 22 28Z" stroke="#22242A" stroke-width="1.5" stroke-linecap="round" stroke-linejoin="round"/>
<path d="M14 26H20" stroke="#22242A" stroke-width="1.5" stroke-linecap="round" stroke-linejoin="round"/>
<path d="M13 22L24.5 20.35L26 11H27" stroke="#22242A" stroke-width="1.5" stroke-linecap="round" stroke-linejoin="round"/>
<path d="M15 12.5H22M18.5 16V9" stroke="#22242A" stroke-width="1.5" stroke-linecap="round" stroke-linejoin="round"/>
</svg>
