<svg width="20" height="21" viewBox="0 0 20 21" fill="none" xmlns="http://www.w3.org/2000/svg">
<path d="M11.3481 18.3062C10.9867 18.6445 10.5037 18.8337 10.0009 18.8337C9.49817 18.8337 9.01517 18.6445 8.65375 18.3062C5.34418 15.1887 0.908967 11.7061 3.07189 6.65004C4.24136 3.91629 7.04862 2.16699 10.0009 2.16699C12.9532 2.16699 15.7605 3.91629 16.93 6.65004C19.0902 11.6997 14.6658 15.1994 11.3481 18.3062Z" stroke="#4354A3" stroke-width="1.5"/>
<path d="M12.9163 9.66667C12.9163 11.2775 11.6105 12.5833 9.99967 12.5833C8.38884 12.5833 7.08301 11.2775 7.08301 9.66667C7.08301 8.05583 8.38884 6.75 9.99967 6.75C11.6105 6.75 12.9163 8.05583 12.9163 9.66667Z" stroke="#4354A3" stroke-width="1.5"/>
</svg>
