<svg width="20" height="20" viewBox="0 0 20 20" fill="none" xmlns="http://www.w3.org/2000/svg">
<path d="M2.5 2.08331H4.58333L6.44065 13.5987C6.57091 14.4063 7.26802 15 8.08606 15H15" stroke="white" stroke-width="1.5" stroke-linecap="round" stroke-linejoin="round"/>
<path d="M7.70833 17.9167C8.51375 17.9167 9.16667 17.2637 9.16667 16.4583C9.16667 15.6529 8.51375 15 7.70833 15C6.90292 15 6.25 15.6529 6.25 16.4583C6.25 17.2637 6.90292 17.9167 7.70833 17.9167Z" stroke="white" stroke-width="1.5" stroke-linecap="round" stroke-linejoin="round"/>
<path d="M15.2083 17.9167C16.0137 17.9167 16.6667 17.2637 16.6667 16.4583C16.6667 15.6529 16.0137 15 15.2083 15C14.4029 15 13.75 15.6529 13.75 16.4583C13.75 17.2637 14.4029 17.9167 15.2083 17.9167Z" stroke="white" stroke-width="1.5" stroke-linecap="round" stroke-linejoin="round"/>
<path d="M6.66667 12.9166L16.25 11.25L17.5 4.58331H5" stroke="white" stroke-width="1.5" stroke-linecap="round" stroke-linejoin="round"/>
</svg>
