<svg width="141" height="40" viewBox="0 0 141 40" fill="none" xmlns="http://www.w3.org/2000/svg">
<g clip-path="url(#clip0_59_16)">
<path d="M33.7235 36.5809C37.7421 32.5622 39.9998 27.1118 39.9998 21.4286C39.9998 15.7454 37.7421 10.2949 33.7235 6.27629C29.7049 2.25765 24.2544 1.02188e-06 18.5712 0C12.888 -1.02188e-06 7.43759 2.25764 3.41895 6.27628L10.49 13.3473C11.6058 14.4631 13.4076 14.4074 14.8271 13.7181C15.9831 13.1568 17.2617 12.8571 18.5712 12.8571C20.8445 12.8571 23.0247 13.7602 24.6321 15.3677C26.2396 16.9751 27.1426 19.1553 27.1426 21.4286C27.1426 22.7381 26.843 24.0167 26.2817 25.1727C25.5924 26.5922 25.5367 28.394 26.6524 29.5098L33.7235 36.5809Z" fill="#4354A3"/>
<path d="M30 40H19.5098C17.9943 40 16.5408 39.398 15.4692 38.3263L1.67368 24.5308C0.60204 23.4592 0 22.0057 0 20.4902V10L30 40Z" fill="#F1F2FA"/>
<path d="M10.7143 39.9995H4.28571C1.91878 39.9995 0 38.0808 0 35.7138V29.2852L10.7143 39.9995Z" fill="#4354A3"/>
</g>
<path d="M61.336 29.336C59.76 29.336 58.36 28.96 57.136 28.208C55.912 27.456 54.952 26.4 54.256 25.04C53.56 23.68 53.212 22.088 53.212 20.264C53.212 18.896 53.424 17.656 53.848 16.544C54.272 15.432 54.86 14.48 55.612 13.688C56.364 12.888 57.24 12.272 58.24 11.84C59.24 11.408 60.312 11.192 61.456 11.192C63.048 11.192 64.464 11.564 65.704 12.308C66.944 13.052 67.916 14.104 68.62 15.464C69.332 16.816 69.688 18.416 69.688 20.264C69.688 21.352 69.508 22.372 69.148 23.324C68.788 24.268 68.252 25.236 67.54 26.228L69.268 27.992L67.828 29.396L61.9 23.372L63.34 21.932L65.608 24.284L65.92 24.764L66.088 24.164C66.4 23.556 66.616 22.92 66.736 22.256C66.856 21.584 66.916 20.92 66.916 20.264C66.916 18.848 66.68 17.604 66.208 16.532C65.744 15.46 65.1 14.628 64.276 14.036C63.452 13.436 62.512 13.136 61.456 13.136C60.408 13.136 59.468 13.436 58.636 14.036C57.812 14.628 57.16 15.46 56.68 16.532C56.2 17.604 55.96 18.848 55.96 20.264C55.96 21.296 56.092 22.248 56.356 23.12C56.62 23.992 56.992 24.748 57.472 25.388C57.96 26.02 58.532 26.512 59.188 26.864C59.844 27.216 60.56 27.392 61.336 27.392C61.576 27.392 61.796 27.376 61.996 27.344C62.204 27.312 62.416 27.276 62.632 27.236C63.088 27.156 63.548 27.196 64.012 27.356C64.476 27.516 64.84 27.74 65.104 28.028C64.464 28.484 63.832 28.816 63.208 29.024C62.584 29.232 61.96 29.336 61.336 29.336ZM71.9472 22.568V20.804H79.1952V22.568H71.9472ZM86.3352 29.3C85.6552 29.3 84.8552 29.212 83.9352 29.036C83.0232 28.868 82.1232 28.572 81.2352 28.148L81.9312 26.408C82.6912 26.752 83.4392 27 84.1752 27.152C84.9192 27.296 85.5752 27.368 86.1432 27.368C87.1992 27.368 88.0312 27.1 88.6392 26.564C89.2472 26.02 89.5512 25.364 89.5512 24.596C89.5512 23.932 89.3552 23.376 88.9632 22.928C88.5712 22.472 88.0672 22.068 87.4512 21.716C86.8432 21.356 86.1952 21.004 85.5072 20.66C84.8192 20.308 84.1672 19.916 83.5512 19.484C82.9352 19.044 82.4312 18.52 82.0392 17.912C81.6552 17.296 81.4632 16.54 81.4632 15.644C81.4632 14.772 81.6752 14.008 82.0992 13.352C82.5312 12.688 83.1192 12.172 83.8632 11.804C84.6152 11.428 85.4712 11.24 86.4312 11.24C87.1352 11.24 87.8352 11.296 88.5312 11.408C89.2272 11.512 90.0072 11.704 90.8712 11.984L90.1632 13.712C89.4752 13.504 88.8352 13.364 88.2432 13.292C87.6592 13.212 87.1312 13.172 86.6592 13.172C85.8112 13.172 85.1552 13.408 84.6912 13.88C84.2272 14.352 83.9952 14.912 83.9952 15.56C83.9952 16.168 84.1912 16.692 84.5832 17.132C84.9752 17.564 85.4792 17.96 86.0952 18.32C86.7112 18.672 87.3672 19.032 88.0632 19.4C88.7592 19.76 89.4152 20.172 90.0312 20.636C90.6472 21.092 91.1512 21.64 91.5432 22.28C91.9432 22.92 92.1432 23.696 92.1432 24.608C92.1432 25.464 91.9112 26.248 91.4472 26.96C90.9912 27.664 90.3272 28.232 89.4552 28.664C88.5912 29.088 87.5512 29.3 86.3352 29.3ZM100.016 29.276C98.6483 29.276 97.6003 28.848 96.8723 27.992C96.1443 27.128 95.7803 25.92 95.7803 24.368V18.44H93.6323V17.144L95.7803 16.592V13.484L98.1803 12.716V24.56C98.1803 25.384 98.3563 26.06 98.7083 26.588C99.0603 27.116 99.5243 27.38 100.1 27.38C100.396 27.38 100.688 27.356 100.976 27.308C101.272 27.252 101.628 27.156 102.044 27.02L102.62 28.712C102.012 28.912 101.52 29.056 101.144 29.144C100.776 29.232 100.4 29.276 100.016 29.276ZM101.156 18.44C100.756 18.44 100.416 18.356 100.136 18.188C99.8643 18.012 99.6363 17.784 99.4523 17.504C99.2763 17.216 99.1363 16.912 99.0323 16.592H102.44V18.44H101.156ZM110.603 29.264C109.523 29.264 108.531 29.016 107.627 28.52C106.723 28.016 105.999 27.284 105.455 26.324C104.919 25.356 104.651 24.176 104.651 22.784C104.651 21.68 104.827 20.724 105.179 19.916C105.531 19.1 105.995 18.428 106.571 17.9C107.155 17.372 107.799 16.98 108.503 16.724C109.207 16.46 109.907 16.328 110.603 16.328C111.843 16.328 112.907 16.612 113.795 17.18C114.691 17.748 115.375 18.52 115.847 19.496C116.327 20.472 116.567 21.568 116.567 22.784C116.567 23.816 116.403 24.736 116.075 25.544C115.755 26.344 115.315 27.024 114.755 27.584C114.203 28.136 113.567 28.556 112.847 28.844C112.135 29.124 111.387 29.264 110.603 29.264ZM110.603 27.332C111.339 27.332 111.947 27.128 112.427 26.72C112.915 26.304 113.275 25.752 113.507 25.064C113.747 24.368 113.867 23.608 113.867 22.784C113.867 21.8 113.723 20.972 113.435 20.3C113.147 19.628 112.755 19.12 112.259 18.776C111.771 18.432 111.219 18.26 110.603 18.26C109.995 18.26 109.443 18.432 108.947 18.776C108.459 19.12 108.067 19.628 107.771 20.3C107.483 20.972 107.339 21.8 107.339 22.784C107.339 24.12 107.627 25.212 108.203 26.06C108.779 26.908 109.579 27.332 110.603 27.332ZM119.558 29V20.468C119.558 19.812 119.526 19.144 119.462 18.464C119.406 17.776 119.31 17.152 119.174 16.592H121.07C121.294 16.816 121.466 17.088 121.586 17.408C121.706 17.728 121.798 18.084 121.862 18.476L121.874 18.944L122.078 18.476C122.398 17.852 122.838 17.352 123.398 16.976C123.966 16.592 124.558 16.4 125.174 16.4C125.374 16.4 125.578 16.42 125.786 16.46C125.994 16.492 126.214 16.548 126.446 16.628L126.134 18.728C125.87 18.656 125.638 18.608 125.438 18.584C125.246 18.56 125.07 18.548 124.91 18.548C124.398 18.548 123.918 18.696 123.47 18.992C123.022 19.288 122.658 19.736 122.378 20.336C122.098 20.936 121.958 21.692 121.958 22.604V29H119.558ZM134.201 29.264C133.265 29.264 132.425 29.092 131.681 28.748C130.945 28.404 130.321 27.928 129.809 27.32C129.297 26.712 128.909 26.012 128.645 25.22C128.381 24.42 128.249 23.568 128.249 22.664C128.249 21.36 128.497 20.236 128.993 19.292C129.497 18.34 130.197 17.608 131.093 17.096C131.997 16.584 133.045 16.328 134.237 16.328C135.077 16.328 135.825 16.508 136.481 16.868C137.145 17.228 137.681 17.724 138.089 18.356C138.497 18.988 138.745 19.712 138.833 20.528C138.929 21.336 138.833 22.192 138.545 23.096H131.657C131.825 22.616 132.065 22.212 132.377 21.884C132.697 21.556 133.121 21.392 133.649 21.392H136.445C136.517 20.808 136.453 20.28 136.253 19.808C136.061 19.328 135.769 18.944 135.377 18.656C134.985 18.368 134.533 18.224 134.021 18.224C133.413 18.224 132.861 18.392 132.365 18.728C131.877 19.056 131.489 19.552 131.201 20.216C130.921 20.872 130.781 21.684 130.781 22.652C130.781 23.588 130.937 24.408 131.249 25.112C131.569 25.816 132.009 26.364 132.569 26.756C133.129 27.14 133.765 27.332 134.477 27.332C135.029 27.332 135.557 27.272 136.061 27.152C136.573 27.024 137.173 26.792 137.861 26.456L138.521 28.22C137.729 28.612 136.965 28.884 136.229 29.036C135.501 29.188 134.825 29.264 134.201 29.264Z" fill="#4354A3"/>
<defs>
<clipPath id="clip0_59_16">
<rect width="40" height="40" fill="white"/>
</clipPath>
</defs>
</svg>
